<svg width="337" height="350" viewBox="0 0 337 350" fill="none" xmlns="http://www.w3.org/2000/svg">
<g clip-path="url(#clip0_1350_1701)">
<path d="M229.769 0.451941C200.173 0.958941 177.356 25.1589 152.022 40.4669C113.768 63.5819 64.635 68.2769 32.322 99.1589C10.204 120.329 -0.71401 152.199 2.37299 182.647C5.46099 213.094 22.183 241.636 46.368 260.402C61.788 272.357 79.887 280.421 98.355 286.733C117.072 293.116 136.561 297.852 156.339 298.101C183.748 298.447 210.674 290.158 235.469 278.459C252.715 270.331 269.342 260.394 282.905 246.991C295.721 234.336 305.546 218.787 312.275 202.079C328.91 160.786 326.265 113.455 311.841 71.3329C299.91 36.4959 270.741 -0.255059 229.769 0.452941V0.451941Z" fill="#4CAF4F"/>
<path opacity="0.7" d="M229.769 0.451941C200.173 0.958941 177.356 25.1589 152.022 40.4669C113.768 63.5819 64.635 68.2769 32.322 99.1589C10.204 120.329 -0.71401 152.199 2.37299 182.647C5.46099 213.094 22.183 241.636 46.368 260.402C61.788 272.357 79.887 280.421 98.355 286.733C117.072 293.116 136.561 297.852 156.339 298.101C183.748 298.447 210.674 290.158 235.469 278.459C252.715 270.331 269.342 260.394 282.905 246.991C295.721 234.336 305.546 218.787 312.275 202.079C328.91 160.786 326.265 113.455 311.841 71.3329C299.91 36.4959 270.741 -0.255059 229.769 0.452941V0.451941Z" fill="white"/>
<path opacity="0.1" d="M248.116 170.868C247.898 164.46 247.48 158.059 246.862 151.677C245.985 138.33 244.313 125.868 241.282 118.029C224.591 114.612 137.879 120.98 137.815 120.98L137.276 118.568L137.059 117.611L136.673 115.931L136.569 115.545C136.01 113.275 135.364 111.028 134.631 108.808C134.631 108.808 68.896 102.938 47.091 108.631V109.201L47.156 114.58C47.22 124.992 46.979 134.761 47.518 145.486V145.566C47.4135 145.557 47.3085 145.557 47.204 145.566C46.3579 145.678 45.5594 146.022 44.8968 146.56C44.2342 147.098 43.7335 147.809 43.45 148.614C43.2333 149.238 43.1535 149.901 43.216 150.559L43.506 153.944V154.105C44.31 162.643 45.114 171.101 45.114 171.101C45.114 171.101 45.532 171.142 46.215 171.174L49.825 171.431C42.139 172.139 33.745 182.285 34.115 191.008C34.485 199.732 26.075 216.158 28.174 225.58C29.782 232.945 38.054 244.788 42.083 253.785L41.769 255.57L23.784 291.685C24.99 289.917 35.844 337.111 86.254 327.118L122.121 268.683C126.121 265.666 129.782 262.224 133.039 258.416C134.414 257.05 135.557 255.47 136.424 253.737C137.705 251.691 138.682 249.47 139.327 247.144C139.487 246.533 139.656 245.93 139.833 245.311C142.76 237.858 146.667 227.687 149.529 220.644C187.317 219.518 226.995 217.211 246.918 212.524H246.958C248.888 199.418 248.928 184.713 248.116 170.868ZM54.054 203.889C53.7424 201.712 53.5548 199.519 53.492 197.32C53.934 199.635 54.416 201.943 54.922 204.258C54.633 204.13 54.344 204.001 54.054 203.889Z" fill="black"/>
<path d="M19.675 289.378C19.675 289.378 35.82 337.111 86.255 327.118C86.255 327.118 97.446 274.576 106.821 266.818C112.867 261.833 126.221 252.892 129.076 246.42C131.93 239.948 143.395 209.211 145.614 205.513C147.833 201.814 121.558 159.258 121.558 159.258L66.211 187.817L35.418 242.489C35.418 242.489 29.508 277.865 19.675 289.378Z" fill="white"/>
<path d="M34.879 246.75C34.879 246.75 30.931 276.265 17.883 291.685M86.255 327.118C86.255 327.118 97.382 276.281 106.821 266.818C106.821 266.818 128.143 254.42 131.986 239.827C134.647 229.721 139.487 218.071 141.803 212.781M90.741 214.413C89.937 213.898 103.645 224.865 104.176 239.851" stroke="#263238" stroke-linecap="round" stroke-linejoin="round"/>
<path d="M239.618 205.223C195.173 215.675 52.028 214.3 52.028 214.3C50.822 211.76 49.368 205.36 47.96 197.947C45.146 183.065 42.517 164.099 42.517 164.099L37.781 163.769C37.781 163.769 36.978 155.311 36.173 146.772C35.37 138.234 40.193 138.242 40.193 138.242L39.848 108.687L39.759 101.306C61.564 95.614 127.299 101.483 127.299 101.483L129.349 108.607L130.491 113.656L233.949 110.737C243.437 135.267 239.618 205.223 239.618 205.223Z" fill="#4CAF4F"/>
<path d="M222.429 133.526L154.571 136.919C153.907 136.952 153.256 137.116 152.655 137.401C152.054 137.685 151.515 138.086 151.069 138.579C150.623 139.072 150.278 139.648 150.055 140.274C149.832 140.901 149.734 141.565 149.767 142.229L150.456 156.018C150.523 157.359 151.12 158.619 152.116 159.52C153.112 160.42 154.425 160.889 155.766 160.822L223.624 157.429C224.288 157.396 224.939 157.232 225.54 156.947C226.141 156.663 226.68 156.262 227.126 155.769C227.572 155.276 227.917 154.7 228.14 154.074C228.363 153.447 228.461 152.783 228.428 152.119L227.739 138.33C227.706 137.666 227.542 137.015 227.257 136.414C226.972 135.813 226.572 135.274 226.079 134.828C225.586 134.382 225.01 134.037 224.384 133.814C223.757 133.591 223.093 133.493 222.429 133.526ZM228.056 166.438L228.273 168.73L150.141 171.753L150.076 169.694L228.056 166.438ZM228.442 174.406L228.514 176.464L150.39 179.351L150.317 177.3L228.442 174.406Z" fill="#263238"/>
<path opacity="0.3" d="M233.933 110.737C233.933 110.737 245.463 165.409 239.618 205.223C239.618 205.223 166.711 213.778 141.747 212.395L140.726 199.089L142.816 198.767C142.816 198.767 132.75 122.821 130.467 113.656C130.467 113.656 217.291 107.312 233.933 110.737Z" fill="black"/>
<path opacity="0.8" d="M138.322 198.896L139.182 208.954C139.182 208.954 65.696 212.17 59.232 209.83C52.768 207.49 59.578 203.76 76.671 202.417C93.764 201.075 138.322 198.896 138.322 198.896Z" fill="white"/>
<path d="M94.447 156.235C98.155 156.235 101.161 153.514 101.161 150.157C101.161 146.8 98.155 144.079 94.447 144.079C90.74 144.079 87.734 146.8 87.734 150.157C87.734 153.514 90.74 156.235 94.447 156.235Z" fill="#263238"/>
<path d="M42.517 164.091C44.0315 181.098 47.2144 197.916 52.02 214.3C83.191 214.035 114.354 213.689 145.517 212.692C176.681 211.695 208.704 209.589 239.585 205.223C239.585 205.223 245.117 156.372 233.901 110.737C221.504 108.156 130.78 113.64 130.78 113.64" stroke="#263238" stroke-linecap="round" stroke-linejoin="round"/>
<path d="M138.322 198.896L139.182 208.954L69.234 210.562C66.348 210.811 61.854 211.189 59.2 209.83C57.994 209.211 57.126 207.699 57.697 206.461C58.211 205.352 59.562 204.958 60.767 204.717C69.322 202.956 78.054 202.216 86.761 201.573C105.408 200.19 124.085 199.254 142.776 198.767C142.382 198.767 137.823 161.148 137.317 157.675C135.339 144.087 133.457 130.443 131.013 116.928C130.131 111.695 128.871 106.533 127.243 101.483C98.427 99.425 68.333 97.5189 39.695 101.306C39.96 114.066 39.486 125.426 40.137 138.242M50.951 210.514C50.7788 209.994 50.6759 209.453 50.645 208.906" stroke="#263238" stroke-linecap="round" stroke-linejoin="round"/>
<path d="M51.112 205.858C52.182 203.181 55.389 200.158 64.112 199.193C80.024 197.424 114.708 194.24 135.057 193.469" stroke="#263238" stroke-linecap="round" stroke-linejoin="round" stroke-dasharray="3.91 3.91"/>
<path d="M136.633 193.412L138.241 193.356L138.024 191.748" stroke="#263238" stroke-linecap="round" stroke-linejoin="round"/>
<path d="M137.574 188.669C133.916 162.354 129.864 136.232 125.225 110.062" stroke="#263238" stroke-linecap="round" stroke-linejoin="round" stroke-dasharray="3.88 3.88"/>
<path d="M124.967 108.526L124.678 106.918L123.07 106.806" stroke="#263238" stroke-linecap="round" stroke-linejoin="round"/>
<path d="M119.822 106.596C106.451 105.704 68.43 103.477 43.064 105.214" stroke="#263238" stroke-linecap="round" stroke-linejoin="round" stroke-dasharray="4.07 4.07"/>
<path d="M41.424 105.334L39.816 105.463M37.782 163.769L35.86 143.267C35.7717 142.339 35.9674 141.407 36.4212 140.593C36.875 139.779 37.5654 139.122 38.401 138.71C38.9555 138.436 39.5595 138.277 40.177 138.242C51.997 137.559 82.564 135.951 94.295 136.891C99.923 137.341 106.041 139.151 108.767 144.537C111.034 148.975 111.372 155.632 107.569 159.283C101.78 164.83 90.797 164.404 83.336 164.669C69.443 165.2 37.79 163.89 37.782 163.769Z" stroke="#263238" stroke-linecap="round" stroke-linejoin="round"/>
<path d="M110.463 151.235C110.463 150.664 113.39 163.013 102.696 167.09C92.003 171.166 42.517 169.879 42.517 169.879V164.091C42.517 164.091 77.523 164.83 83.352 164.669C89.182 164.509 109.836 166.446 110.463 151.235Z" fill="#263238"/>
<path d="M100.18 220.218C100.18 220.218 108.927 225.339 112.2 234.963" stroke="#263238" stroke-linecap="round" stroke-linejoin="round"/>
<path d="M36.101 141.321C36.101 141.321 79.003 139.303 89.921 139.665C100.839 140.027 106.186 142.431 107.271 149.273C108.357 156.115 101.74 160.376 96.465 161.18C91.191 161.984 37.773 162.217 37.773 162.217" stroke="#263238" stroke-linecap="round" stroke-linejoin="round" stroke-dasharray="4 4"/>
<path d="M65.584 224.206C65.584 224.206 58.943 201.139 46.722 196.596C46.722 196.596 44.31 180.854 49.52 179.986C54.73 179.117 69.443 169.421 65.6 157.321C61.757 145.221 50.22 163.391 42.533 164.09C34.847 164.79 26.453 174.944 26.799 183.676C27.145 192.407 18.759 208.833 20.857 218.248C22.956 227.663 35.892 244.458 36.937 253.198" fill="white"/>
<path d="M65.584 224.206C65.584 224.206 58.943 201.139 46.722 196.596C46.722 196.596 44.31 180.854 49.52 179.986C54.73 179.117 69.443 169.421 65.6 157.321C61.757 145.221 50.22 163.391 42.533 164.09C34.847 164.79 26.453 174.944 26.799 183.676C27.145 192.407 18.759 208.833 20.857 218.248C22.956 227.663 35.892 244.458 36.937 253.198" stroke="#263238" stroke-linecap="round" stroke-linejoin="round"/>
<path d="M49.496 160.545C49.496 160.545 58.702 162.217 63.702 156.372C68.703 150.527 62.947 150.157 62.947 150.157L49.496 160.545Z" fill="white" stroke="#263238" stroke-linecap="round" stroke-linejoin="round"/>
<path d="M33.054 173.57C34.734 173.685 36.359 174.219 37.781 175.121M32.773 176.914C34.4465 177.073 36.0408 177.703 37.371 178.731M57.624 207.812C57.624 207.812 97.02 205.778 107.392 206.373M97.8 203.366C97.8 203.366 107.713 202.562 113.88 203.366M122.917 206.26H138.957" stroke="#263238" stroke-linecap="round" stroke-linejoin="round"/>
<path d="M132.621 118.158C132.621 118.158 203.076 111.863 231.385 115.457C231.385 115.457 239.023 129.503 237.358 201.485C205.54 205.563 173.528 207.944 141.457 208.616" stroke="#263238" stroke-linecap="round" stroke-linejoin="round" stroke-dasharray="4 4"/>
<g opacity="0.1">
<path d="M323.346 217.773C321.344 209.259 318.41 206.059 315.467 203.599C315.467 203.599 315.403 198.775 311.632 196.025C310.625 195.138 309.55 194.332 308.416 193.613C305.93 191.746 303.451 189.87 300.979 187.985C299.146 182.679 296.661 176.255 293.976 169.935L294.113 171.375C291.363 164.661 288.67 157.98 287.914 155.761V155.713C288.718 157.851 289.522 159.918 290.406 161.823L280.34 126.246C280.099 124.815 279.85 123.408 279.601 122.049C279.118 118.029 277.808 110.456 274.648 109.917C274.53 109.909 274.412 109.909 274.294 109.917C274.294 109.917 270.572 108.309 270.572 114.91C266.142 116.389 264.429 119.734 264.003 123.665C263.772 124.912 263.745 126.188 263.923 127.444C264.01 128.925 264.169 130.4 264.397 131.866L250.134 113.117L248.759 111.332L231.168 88.177L207.522 56.982C206.642 55.8242 205.543 54.8511 204.287 54.1182C203.031 53.3853 201.642 52.907 200.202 52.7106C198.761 52.5142 197.295 52.6035 195.889 52.9735C194.482 53.3435 193.163 53.9869 192.005 54.867L162.651 77.162L151.194 85.862C142.406 90.436 144.697 99.472 147.134 102.681L198.324 170.064C198.057 170.03 197.789 170.017 197.52 170.024C197.52 170.024 196.057 166.575 192.439 167.121C191.668 167.157 190.923 167.405 190.284 167.837C189.7 168.144 189.205 168.595 188.845 169.148C188.444 169.632 188.084 170.148 187.768 170.691C185.927 173.843 187.631 181.553 190.292 190.968C190.461 191.579 190.63 192.166 190.791 192.713V192.801L191.474 195.157C194.079 204.194 198.951 221.938 199.852 230.637C199.916 231.441 199.956 232.302 199.972 233.106C200.029 243.124 195.583 259.895 197.496 266.825C197.745 267.734 198.003 268.602 198.26 269.463C199.683 274.094 200.953 278.475 203.188 282.825C205.906 288.131 209.146 293.221 212.177 298.358C217.743 307.801 223.501 317.13 229.447 326.338C232.189 330.567 235.397 334.426 238.5 338.398C239.923 340.223 243.027 342.964 243.565 345.304C243.565 345.304 271.086 347.579 286.491 337.795L285.044 315.894L295.375 256.518C298.326 252.04 307.435 243.292 309.252 240.527C310.176 239.173 311.093 237.814 312.002 236.45C318.796 230.107 322.196 225.194 323.692 219.478C323.724 219.494 323.62 218.843 323.346 217.773ZM228.072 230.742L227.936 230.485C230.747 231.758 233.725 232.624 236.78 233.057C233.572 232.688 229.946 232.173 228.072 230.742ZM239.682 233.403L241.161 233.508C240.666 233.506 240.172 233.471 239.682 233.403ZM227.783 230.139L225.934 226.473C223.361 219.092 217.548 201.693 217.524 201.621C216.385 196.608 214.864 191.689 212.973 186.908C214.341 187.39 215.807 187.525 217.24 187.301C218.673 187.076 220.027 186.499 221.182 185.621L235.252 174.936C236.678 175.793 238.146 176.579 239.65 177.292L252.827 187.591L242.375 230.549L227.783 230.139ZM281.12 131.199C282.214 136.328 283.942 143.709 286.234 150.857C284.009 144.45 282.294 137.876 281.104 131.199H281.12ZM221.391 337.618L221.471 338.004C221.471 338.004 221.447 337.859 221.391 337.618Z" fill="black"/>
</g>
<path d="M270.234 132.775C271.038 132.244 282.825 125.828 288.726 145.068C294.627 164.308 301.55 197.046 301.55 197.046L287.528 199.772C287.528 199.772 274.535 192.858 262.893 175.539C262.893 175.539 246.572 171.31 239.465 161.26C233.033 152.127 252.876 118.592 252.876 118.592L270.234 132.775Z" fill="white"/>
<path d="M265.193 156.718C268.666 161.928 275.243 172.886 284.119 176.343M255.368 162.322C256.976 162.973 260.996 165.288 262.893 165.377C262.893 165.377 271.086 181.593 284.601 186.86M247.851 168.295C252.876 172.5 258.865 175.371 262.893 175.531C262.893 175.531 271.086 191.748 284.601 197.014" stroke="#263238" stroke-linecap="round" stroke-linejoin="round"/>
<path d="M205.562 50.7829L161.103 84.5529C160.185 85.2503 159.413 86.1218 158.831 87.1175C158.25 88.1133 157.87 89.2138 157.714 90.3562C157.558 91.4987 157.629 92.6607 157.922 93.7759C158.215 94.8911 158.725 95.9377 159.422 96.8559L221.171 178.147C222.579 180.001 224.667 181.22 226.974 181.535C229.281 181.85 231.619 181.236 233.473 179.828L277.931 146.058C279.785 144.649 281.004 142.562 281.319 140.255C281.634 137.948 281.02 135.61 279.612 133.756L217.864 52.4639C216.455 50.6099 214.368 49.3913 212.061 49.0763C209.754 48.7612 207.416 49.3745 205.562 50.7829Z" fill="#263238"/>
<path d="M276.666 144.296L235.871 175.29C234.128 176.618 232.03 177.398 229.842 177.532C227.655 177.665 225.477 177.146 223.586 176.039C222.33 175.304 221.232 174.328 220.354 173.168L161.38 95.533C160.42 94.2788 159.745 92.83 159.403 91.288C158.927 89.217 159.06 87.0525 159.786 85.0554C160.512 83.0583 161.8 81.3137 163.495 80.032L174.96 71.332L204.306 49.03C205.464 48.1499 206.784 47.5066 208.191 47.137C209.597 46.7673 211.063 46.6785 212.504 46.8755C213.945 47.0726 215.333 47.5517 216.589 48.2855C217.845 49.0192 218.944 49.9933 219.823 51.152L243.485 82.299L261.076 105.455L278.764 128.771C279.647 129.927 280.293 131.247 280.665 132.653C281.037 134.06 281.128 135.526 280.933 136.968C280.738 138.41 280.261 139.799 279.529 141.056C278.796 142.314 277.824 143.415 276.666 144.296Z" fill="#4CAF4F"/>
<path opacity="0.1" d="M243.453 82.3L174.936 71.325L204.306 49.03C205.464 48.1499 206.784 47.5066 208.191 47.137C209.597 46.7673 211.063 46.6785 212.504 46.8755C213.945 47.0726 215.333 47.5517 216.589 48.2855C217.845 49.0192 218.944 49.9933 219.823 51.152L243.453 82.3ZM276.666 144.296L235.871 175.29C234.128 176.618 232.03 177.398 229.842 177.532C227.655 177.665 225.477 177.146 223.586 176.039C222.33 175.304 221.232 174.328 220.354 173.168L161.38 95.533C160.42 94.2788 159.745 92.83 159.403 91.288L262.427 107.312L278.764 128.819C280.532 131.152 281.304 134.09 280.911 136.991C280.517 139.891 278.991 142.518 276.666 144.296Z" fill="black"/>
<path d="M210.096 56.913L202.893 62.383C202.55 62.6435 202.261 62.9691 202.044 63.3412C201.827 63.7132 201.685 64.1245 201.627 64.5514C201.568 64.9783 201.595 65.4125 201.704 65.8292C201.814 66.2459 202.004 66.6369 202.265 66.98L210.985 78.46C211.246 78.803 211.571 79.0913 211.943 79.3085C212.315 79.5257 212.726 79.6675 213.153 79.7259C213.58 79.7842 214.014 79.7579 214.43 79.6484C214.847 79.539 215.238 79.3485 215.581 79.088L222.784 73.616C223.127 73.3554 223.415 73.0299 223.633 72.6579C223.85 72.2859 223.992 71.8748 224.05 71.448C224.108 71.0213 224.082 70.5872 223.972 70.1706C223.863 69.754 223.673 69.363 223.412 69.02L214.692 57.54C214.166 56.8474 213.386 56.3922 212.524 56.2746C211.662 56.157 210.789 56.3867 210.096 56.913Z" fill="white" stroke="#263238" stroke-linecap="round" stroke-linejoin="round"/>
<path d="M206.646 59.522L219.083 76.422M206.646 72.748L219.083 63.317" stroke="#263238" stroke-linecap="round" stroke-linejoin="round"/>
<path d="M230.733 170.233L228.611 171.793L202.714 137.703L204.821 136.111L230.733 170.233ZM234.327 167.572L232.205 169.148L206.276 135.002L208.366 133.41L234.327 167.572ZM237.913 164.927L235.799 166.486L209.829 132.308L211.928 130.708L237.913 164.927ZM241.507 162.265L239.384 163.825L213.761 130.097L215.851 128.497L241.507 162.265ZM245.382 159.403L243.26 160.971L217.596 127.187L219.695 125.587L245.382 159.403ZM245.382 119.653L243.26 121.213L217.596 87.4289L219.695 85.8369L245.382 119.653ZM189.49 60.3729L186.206 62.8679L258.522 158.072L261.806 155.577L189.49 60.3729Z" fill="#263238"/>
<path d="M276.666 144.296L235.871 175.29C234.128 176.618 232.03 177.398 229.842 177.532C227.655 177.665 225.477 177.146 223.586 176.039C222.33 175.304 221.232 174.328 220.354 173.168L161.38 95.533C160.42 94.2788 159.745 92.83 159.403 91.288C158.927 89.217 159.06 87.0525 159.786 85.0554C160.512 83.0583 161.8 81.3137 163.495 80.032L174.96 71.332L204.306 49.03C205.464 48.1499 206.784 47.5066 208.191 47.137C209.597 46.7673 211.063 46.6785 212.504 46.8755C213.945 47.0726 215.333 47.5517 216.589 48.2855C217.845 49.0192 218.944 49.9933 219.823 51.152L243.485 82.299L261.076 105.455L278.764 128.771C279.647 129.927 280.293 131.247 280.665 132.653C281.037 134.06 281.128 135.526 280.933 136.968C280.738 138.41 280.261 139.799 279.529 141.056C278.796 142.314 277.824 143.415 276.666 144.296Z" stroke="#263238" stroke-linecap="round" stroke-linejoin="round"/>
<path d="M243.597 345.296C243.597 345.296 291.082 362.18 305.449 325.405C305.449 325.405 282.977 298.069 295.246 275.734C302.965 261.664 324.311 230.605 324.311 230.605C324.311 230.605 333.227 222.139 336.001 213.633C336.001 213.633 334.474 204.154 327.752 197.738C327.752 197.738 327.68 192.914 323.909 190.164C320.138 187.414 313.224 182.124 313.224 182.124C313.224 182.124 301.855 154.852 300.167 149.924C298.478 144.995 295.086 135.677 293.389 125.386C291.693 115.095 290.125 104.016 286.523 104.048C286.523 104.048 282.808 102.44 282.808 109.041C282.808 109.041 275.01 113.061 276.159 121.567C277.309 130.073 278.37 134.471 278.065 139.255C277.759 144.039 279.295 160.649 283.138 165.859C283.138 165.859 284.425 189.175 286.354 195.245C286.418 195.43 286.475 195.599 286.531 195.752C288.557 200.89 268.312 220.676 257.354 226.031C257.354 226.031 256.204 228.169 251.951 227.582C247.698 226.995 240.502 226.722 239.264 223.562C238.026 220.403 229.785 195.752 229.785 195.752C229.785 195.752 223.12 164.155 209.805 164.163C209.805 164.163 207.787 159.339 202.569 161.976C197.351 164.613 200.768 178.989 203.076 186.852C205.383 194.715 211.228 215.386 212.177 224.897C213.126 234.408 207.739 253.463 209.765 260.956C211.791 268.45 214.042 273.507 220.507 285.776C226.971 298.045 241.29 334.627 243.597 345.296Z" fill="white"/>
<path d="M243.597 345.296C243.597 345.296 233.435 307.042 218.497 282.303C203.558 257.564 212.346 248.816 212.346 228.226C212.346 207.635 195.566 172.581 200.093 164.854C204.62 157.128 210.794 163.311 213.375 170.522C215.956 177.734 212.346 181.859 205.11 182.373" stroke="#263238" stroke-linecap="round" stroke-linejoin="round"/>
<path d="M209.805 164.195C209.805 164.195 218.48 163.664 223.811 177.533C229.142 191.402 237.68 226.577 246.572 237.279" stroke="#263238" stroke-linecap="round" stroke-linejoin="round"/>
<path d="M239.553 224.286C239.602 224.398 251.975 231.297 271.175 225.251M211.454 204.901C212.418 203.72 213.676 202.815 215.102 202.275C216.527 201.734 218.069 201.578 219.574 201.822M213.102 209.267C213.935 208.27 215.032 207.527 216.268 207.125C217.503 206.723 218.827 206.676 220.088 206.992" stroke="#263238" stroke-linecap="round" stroke-linejoin="round"/>
<path d="M282.809 109.016C270.186 113.221 279.593 132.284 278.065 139.239C276.537 146.193 280.477 159.508 283.508 166.728C283.508 175.194 286.523 195.736 286.523 195.736C284.658 202.272 269.092 221.536 253.969 227.566" stroke="#263238" stroke-linecap="round" stroke-linejoin="round"/>
<path d="M292.071 118.616C292.071 118.616 291.13 104.024 286.523 104.024C281.916 104.024 282.198 113.857 284.111 121.157C286.025 128.457 293.47 127.412 292.071 118.616Z" stroke="#263238" stroke-linecap="round" stroke-linejoin="round"/>
<path d="M292.071 118.616C292.071 118.616 295.994 141.554 302.643 155.962M310.482 209.685C313.698 204.475 315.121 199.547 316.311 193.276C316.014 189.344 311.487 176.512 306.229 164.082" stroke="#263238" stroke-linecap="round" stroke-linejoin="round"/>
<path d="M313.65 183.338C318.868 187.262 327.945 190.277 326.9 197.046C325.747 203.818 323.377 210.326 319.905 216.254" stroke="#263238" stroke-linecap="round" stroke-linejoin="round"/>
<path d="M306.607 327.118C306.607 327.118 288.428 301.88 292.071 284.449C294.748 271.625 311.962 249.202 324.311 230.63C331.113 224.286 334.514 219.373 336.001 213.657C333.822 202.924 330.285 199.796 326.884 197.046M311.455 187.503C309.43 186.933 307.31 186.786 305.226 187.069C303.142 187.353 301.138 188.061 299.339 189.151M310.434 191.82C307.964 191.446 305.44 191.89 303.246 193.083" stroke="#263238" stroke-linecap="round" stroke-linejoin="round"/>
</g>
<defs>
<clipPath id="clip0_1350_1701">
<rect width="336" height="349" fill="white" transform="translate(0.929993 0.219971)"/>
</clipPath>
</defs>
</svg>
