<svg width="16" height="17" viewBox="0 0 16 17" fill="none" xmlns="http://www.w3.org/2000/svg">
<path d="M4.5947 2.68127C5.96627 0.306274 9.39517 0.306274 10.7667 2.68127L11.8741 4.59909L12.6964 4.12409C12.9458 3.97862 13.2575 3.9994 13.4861 4.17456C13.7147 4.34971 13.8156 4.64659 13.7414 4.92565L13.0438 7.52034C12.9428 7.90034 12.551 8.12596 12.171 8.02502L9.57627 7.33034C9.2972 7.25612 9.09236 7.02159 9.05377 6.73659C9.01517 6.45159 9.1547 6.16956 9.40408 6.02706L10.2264 5.55206L9.11908 3.63424C8.47783 2.5269 6.88064 2.5269 6.23939 3.63424L6.08205 3.9044C5.8208 4.35862 5.23892 4.51299 4.7847 4.25174C4.33048 3.99049 4.17611 3.40862 4.43736 2.95143L4.5947 2.68127ZM13.4238 9.18581C13.878 8.92455 14.4599 9.07893 14.7211 9.53315L14.8785 9.8033C16.25 12.1783 14.537 15.1471 11.7939 15.1471H9.57924V16.0971C9.57924 16.385 9.40705 16.6463 9.13986 16.7561C8.87267 16.866 8.56689 16.8066 8.36205 16.6017L6.46205 14.7017C6.18299 14.4227 6.18299 13.9714 6.46205 13.6953L8.36205 11.7953C8.56689 11.5905 8.87267 11.5311 9.13986 11.641C9.40705 11.7508 9.57924 12.0121 9.57924 12.3V13.25H11.7939C13.0735 13.25 13.875 11.8636 13.2338 10.7563L13.0764 10.4861C12.8152 10.0319 12.9695 9.45002 13.4238 9.18877V9.18581ZM1.58736 7.88846L0.765016 7.41346C0.515641 7.26799 0.37611 6.98893 0.414703 6.70393C0.453297 6.41893 0.658141 6.1844 0.937203 6.11018L3.53189 5.41252C3.91189 5.31159 4.30377 5.53721 4.4047 5.91721L5.09939 8.5119C5.17361 8.79096 5.07267 9.08487 4.84408 9.26299C4.61548 9.44112 4.30377 9.45893 4.05439 9.31346L3.23205 8.83846L2.1247 10.7563C1.48345 11.8636 2.28502 13.25 3.56455 13.25H3.87923C4.4047 13.25 4.82923 13.6746 4.82923 14.2C4.82923 14.7255 4.4047 15.15 3.87923 15.15H3.56455C0.824391 15.15 -0.888578 12.1813 0.482985 9.80627L1.58736 7.88846Z" fill="white"/>
</svg>
